<svg xmlns="http://www.w3.org/2000/svg" viewBox="0 0 512 512" role="img" aria-label="旧布鞋">
  <defs>
    <radialGradient id="bg" cx="50%" cy="45%" r="65%">
      <stop offset="0" stop-color="#f8efd2"/>
      <stop offset="1" stop-color="#be9552"/>
    </radialGradient>
    <linearGradient id="shoe" x1="0" y1="0" x2="1" y2="1">
      <stop offset="0" stop-color="#8f6b45"/>
      <stop offset="1" stop-color="#3f2b1d"/>
    </linearGradient>
  </defs>
  <rect width="512" height="512" rx="56" fill="url(#bg)"/>
  <circle cx="256" cy="256" r="205" fill="none" stroke="#7c4f1d" stroke-width="10" opacity=".22"/>
  <path d="M95 278c40-54 88-72 142-48 35 16 61 38 110 47 40 8 61 31 68 64 5 24-13 43-48 43H145c-45 0-75-48-50-106Z" fill="url(#shoe)" stroke="#2b2018" stroke-width="10" stroke-linejoin="round"/>
  <path d="M111 281c34 28 78 42 132 42h161" fill="none" stroke="#d1b181" stroke-width="10" stroke-linecap="round" opacity=".75"/>
  <path d="M174 236l-28 49M220 236l-25 59M269 257l-21 50" stroke="#e3c894" stroke-width="8" stroke-linecap="round" opacity=".72"/>
  <path d="M126 384c44 18 204 18 262 0" stroke="#221812" stroke-width="12" stroke-linecap="round" opacity=".55"/>
</svg>
