<svg xmlns="http://www.w3.org/2000/svg" viewBox="0 0 512 512" role="img" aria-label="粗布长裤">
  <defs>
    <radialGradient id="bg" cx="50%" cy="45%" r="65%">
      <stop offset="0" stop-color="#f7edd0"/>
      <stop offset="1" stop-color="#bf9550"/>
    </radialGradient>
    <linearGradient id="cloth" x1="0" y1="0" x2="1" y2="1">
      <stop offset="0" stop-color="#b58a55"/>
      <stop offset="1" stop-color="#684425"/>
    </linearGradient>
  </defs>
  <rect width="512" height="512" rx="56" fill="url(#bg)"/>
  <circle cx="256" cy="256" r="205" fill="none" stroke="#7c4f1d" stroke-width="10" opacity=".22"/>
  <path d="M174 108h164l24 76-40 246h-86l-12-184-42 184H98l50-246 26-76Z" fill="url(#cloth)" stroke="#352617" stroke-width="10" stroke-linejoin="round"/>
  <path d="M174 108h164v54H174z" fill="#7d5632" stroke="#352617" stroke-width="8"/>
  <path d="M256 166l-20 264M182 216h50M300 216h38M158 294h54M292 294h42" stroke="#d1b181" stroke-width="9" stroke-linecap="round" opacity=".65"/>
  <path d="M178 114v46M226 114v46M274 114v46M322 114v46" stroke="#c6a273" stroke-width="6" opacity=".8"/>
</svg>
