<svg xmlns="http://www.w3.org/2000/svg" viewBox="0 0 512 512" role="img" aria-label="青色练功服">
  <defs>
    <radialGradient id="bg" cx="50%" cy="44%" r="65%">
      <stop offset="0" stop-color="#f8f1d8"/>
      <stop offset="1" stop-color="#c5a15c"/>
    </radialGradient>
    <linearGradient id="cloth" x1="0" y1="0" x2="1" y2="1">
      <stop offset="0" stop-color="#6eb6a4"/>
      <stop offset="1" stop-color="#226b68"/>
    </linearGradient>
  </defs>
  <rect width="512" height="512" rx="56" fill="url(#bg)"/>
  <circle cx="256" cy="256" r="205" fill="none" stroke="#7c4f1d" stroke-width="10" opacity=".2"/>
  <path d="M182 126l56-34h36l56 34 78 74-44 56-38-30 18 180H168l18-180-38 30-44-56 78-74Z" fill="url(#cloth)" stroke="#17423f" stroke-width="10" stroke-linejoin="round"/>
  <path d="M238 92l18 58 18-58" fill="none" stroke="#e4d1a0" stroke-width="10" stroke-linecap="round"/>
  <path d="M256 152v252M205 177l101 72M303 177l-101 72" stroke="#d8c48b" stroke-width="9" stroke-linecap="round" opacity=".88"/>
  <path d="M192 312h128" stroke="#17423f" stroke-width="18" stroke-linecap="round"/>
  <path d="M205 312h102" stroke="#d8c48b" stroke-width="8" stroke-linecap="round"/>
</svg>
