<svg xmlns="http://www.w3.org/2000/svg" width="1280" height="720" viewBox="0 0 1280 720" role="img" aria-labelledby="title desc">
  <title id="title">CNB 创建合并请求入口示意图</title>
  <desc id="desc">展示提交成功后的仓库首页，顶部提示可以创建合并请求。</desc>
  <rect width="1280" height="720" fill="#fafafa"/>
  <rect x="88" y="36" width="700" height="42" rx="0" fill="#fff"/>
  <text x="116" y="64" fill="#ff6a00" font-family="Microsoft YaHei, Arial, sans-serif" font-size="18" font-weight="700">代码</text>
  <text x="190" y="64" fill="#333" font-family="Microsoft YaHei, Arial, sans-serif" font-size="18">ISSUE</text>
  <text x="286" y="64" fill="#333" font-family="Microsoft YaHei, Arial, sans-serif" font-size="18">合并请求</text>
  <text x="410" y="64" fill="#333" font-family="Microsoft YaHei, Arial, sans-serif" font-size="18">云原生构建</text>
  <line x1="108" y1="80" x2="160" y2="80" stroke="#ff6a00" stroke-width="3"/>
  <rect x="112" y="110" width="170" height="42" rx="6" fill="#fff" stroke="#d9d9d9"/>
  <text x="146" y="137" fill="#333" font-family="Microsoft YaHei, Arial, sans-serif" font-size="16">main</text>
  <rect x="112" y="166" width="680" height="48" rx="6" fill="#e8f3ff"/>
  <text x="132" y="196" fill="#0759b8" font-family="Microsoft YaHei, Arial, sans-serif" font-size="17">Fork 自 bacon159-2026/comfyui-ql，领先 main 1 次提交</text>
  <text x="632" y="196" fill="#0759b8" font-family="Microsoft YaHei, Arial, sans-serif" font-size="17" font-weight="700">创建合并请求</text>
  <rect x="622" y="176" width="132" height="30" rx="15" fill="none" stroke="#0759b8" stroke-width="2"/>
  <rect x="112" y="230" width="680" height="244" rx="8" fill="#fff" stroke="#ddd"/>
  <text x="140" y="266" fill="#555" font-family="Microsoft YaHei, Arial, sans-serif" font-size="16">小号　编辑文件 自定义下载链接.yaml</text>
  <line x1="112" y1="290" x2="792" y2="290" stroke="#eee"/>
  <text x="140" y="326" fill="#1f6fb2" font-family="Microsoft YaHei, Arial, sans-serif" font-size="16">.cnb</text>
  <text x="140" y="366" fill="#1f6fb2" font-family="Microsoft YaHei, Arial, sans-serif" font-size="16">scripts</text>
  <text x="140" y="406" fill="#1f6fb2" font-family="Microsoft YaHei, Arial, sans-serif" font-size="16">自定义下载链接.yaml</text>
  <text x="450" y="406" fill="#666" font-family="Microsoft YaHei, Arial, sans-serif" font-size="16">刚刚</text>
  <rect x="820" y="110" width="300" height="430" rx="8" fill="#fff"/>
  <text x="842" y="146" fill="#111" font-family="Microsoft YaHei, Arial, sans-serif" font-size="22" font-weight="700">简介</text>
  <text x="842" y="196" fill="#555" font-family="Microsoft YaHei, Arial, sans-serif" font-size="16">ComfyUI在线运行终极解决方案</text>
  <text x="842" y="230" fill="#555" font-family="Microsoft YaHei, Arial, sans-serif" font-size="16">预装主流插件和模型自动下载</text>
  <text x="842" y="306" fill="#555" font-family="Microsoft YaHei, Arial, sans-serif" font-size="16">10.49 MiB</text>
  <text x="842" y="402" fill="#111" font-family="Microsoft YaHei, Arial, sans-serif" font-size="20">贡献者</text>
  <circle cx="860" cy="444" r="18" fill="#d9edf7"/>
  <circle cx="904" cy="444" r="18" fill="#ddd"/>
  <circle cx="948" cy="444" r="18" fill="#ffe2a0"/>
  <path d="M760 156 L694 178" stroke="#ff6a00" stroke-width="4" stroke-linecap="round"/>
  <path d="M694 178 l16 -12 M694 178 l18 8" stroke="#ff6a00" stroke-width="4" stroke-linecap="round"/>
  <text x="778" y="154" fill="#ff6a00" font-family="Microsoft YaHei, Arial, sans-serif" font-size="18" font-weight="700">提交后点这里创建合并请求</text>
</svg>
